<?xml version="1.0" standalone="no"?>
<!DOCTYPE svg PUBLIC "-//W3C//DTD SVG 20010904//EN"
 "http://www.w3.org/TR/2001/REC-SVG-20010904/DTD/svg10.dtd">
<svg version="1.0" xmlns="http://www.w3.org/2000/svg"
 width="275.000000pt" height="183.000000pt" viewBox="0 0 275.000000 183.000000"
 preserveAspectRatio="xMidYMid meet">

<g transform="translate(0.000000,183.000000) scale(0.100000,-0.100000)"
fill="#000000" stroke="none">
<path d="M783 1073 c-24 -8 -43 -19 -43 -24 0 -6 5 -7 10 -4 6 4 10 -35 10
-109 0 -82 -4 -116 -12 -119 -7 -3 12 -6 42 -6 34 0 50 3 42 8 -11 6 -13 38
-10 140 2 72 3 131 3 130 0 0 -19 -7 -42 -16z"/>
<path d="M1470 1075 c-17 -20 -5 -45 20 -45 11 0 23 7 26 15 6 15 -11 45 -26
45 -4 0 -13 -7 -20 -15z"/>
<path d="M530 1070 c0 -5 5 -10 10 -10 16 0 13 -237 -2 -243 -7 -3 14 -5 47
-6 46 0 55 2 37 9 -21 9 -23 15 -20 72 l3 63 35 -3 c19 -2 37 -8 38 -13 8 -22
22 -6 22 26 0 19 -4 35 -10 35 -5 0 -10 -7 -10 -16 0 -12 -9 -14 -37 -12 -37
3 -38 4 -41 46 l-3 42 36 0 c20 0 47 -7 60 -16 25 -16 31 -10 19 20 -5 13 -23
16 -95 16 -53 0 -89 -4 -89 -10z"/>
<path d="M1962 1018 c-6 -6 -33 -13 -59 -14 -37 -1 -52 -7 -70 -28 -30 -35
-29 -71 1 -101 l24 -24 -24 -22 c-29 -27 -24 -37 16 -31 30 4 31 3 19 -15 -21
-34 -5 -53 44 -53 24 0 50 6 59 13 48 38 16 87 -58 87 -27 0 -43 4 -39 10 3 6
22 10 41 10 24 0 43 8 59 25 29 28 31 54 10 95 -13 25 -13 30 -1 30 7 0 16 7
20 15 7 18 -24 21 -42 3z m-33 -54 c36 -45 25 -94 -20 -94 -61 0 -69 117 -7
120 4 0 16 -12 27 -26z m16 -178 c16 -12 17 -16 6 -30 -17 -20 -51 -4 -51 24
0 23 18 26 45 6z"/>
<path d="M1183 995 c-21 -9 -33 -10 -33 -3 0 6 -11 8 -27 3 -31 -7 -55 -25
-35 -25 8 0 12 -22 12 -68 0 -40 -5 -73 -12 -80 -9 -9 -1 -12 38 -12 29 0 44
4 36 9 -20 12 -12 131 9 144 35 22 49 2 49 -72 0 -46 -4 -71 -12 -74 -7 -3 11
-6 41 -6 47 -1 52 1 37 12 -14 10 -17 25 -14 72 3 55 5 60 31 69 37 13 47 -2
47 -76 0 -44 -4 -59 -17 -67 -14 -8 -5 -10 37 -10 30 0 49 3 43 6 -9 3 -13 28
-13 73 0 38 -3 76 -6 85 -11 28 -51 37 -90 20 -32 -13 -38 -13 -57 0 -26 18
-24 18 -64 0z"/>
<path d="M1673 995 c-21 -9 -33 -10 -33 -3 0 6 -11 8 -27 3 -31 -7 -55 -25
-35 -25 17 0 17 -146 0 -153 -7 -3 12 -5 42 -5 30 0 47 2 38 5 -15 4 -18 16
-18 68 0 66 13 90 47 83 15 -3 19 -15 21 -72 2 -49 -1 -72 -10 -77 -8 -5 10
-8 42 -8 30 0 49 3 43 6 -9 3 -13 28 -13 77 0 100 -29 131 -97 101z"/>
<path d="M886 976 c-7 -28 -3 -29 32 -9 25 14 32 15 46 4 29 -24 19 -41 -24
-41 -71 0 -105 -65 -59 -111 16 -16 28 -20 52 -14 18 3 52 6 77 6 25 0 39 2
33 5 -9 4 -13 29 -13 75 0 100 -8 110 -80 108 -50 -2 -59 -5 -64 -23z m94 -96
c0 -34 -25 -53 -52 -39 -18 9 -25 49 -11 62 3 4 19 7 35 7 24 0 28 -4 28 -30z"/>
<path d="M1470 988 c-15 -6 -20 -12 -12 -15 16 -6 17 -134 0 -151 -9 -9 -1
-12 38 -11 27 0 43 3 37 6 -9 3 -13 32 -13 94 0 95 -2 97 -50 77z"/>
<path d="M2063 982 c-48 -38 -51 -112 -6 -154 20 -18 36 -23 80 -23 48 0 58 4
79 28 34 40 33 105 -2 141 -22 21 -36 26 -78 26 -33 0 -59 -7 -73 -18z m106
-28 c13 -16 21 -41 21 -65 0 -67 -51 -91 -89 -43 -24 30 -29 102 -9 122 20 20
55 13 77 -14z"/>
</g>
</svg>
