<?xml version="1.0" standalone="no"?>
<!DOCTYPE svg PUBLIC "-//W3C//DTD SVG 20010904//EN"
 "http://www.w3.org/TR/2001/REC-SVG-20010904/DTD/svg10.dtd">
<svg version="1.0" xmlns="http://www.w3.org/2000/svg"
 width="225.000000pt" height="225.000000pt" viewBox="0 0 225.000000 225.000000"
 preserveAspectRatio="xMidYMid meet">

<g transform="translate(0.000000,225.000000) scale(0.100000,-0.100000)"
fill="#000000" stroke="none">
<path d="M1335 1768 c-9 -59 -1 -83 15 -43 8 20 8 40 2 60 -9 30 -9 30 -17
-17z"/>
<path d="M685 625 c0 -108 1 -115 20 -115 19 0 20 6 17 115 -3 100 -5 115 -20
115 -15 0 -17 -14 -17 -115z"/>
<path d="M508 629 c3 -76 0 -104 -10 -110 -8 -5 4 -8 32 -8 25 0 39 3 33 6 -9
3 -13 35 -13 109 0 101 -1 104 -22 104 -23 0 -23 -2 -20 -101z"/>
<path d="M610 719 c14 -5 31 -17 38 -26 10 -15 12 -14 12 10 0 25 -3 27 -37
26 -35 0 -36 -1 -13 -10z"/>
<path d="M1172 704 c4 -21 22 -23 26 -1 2 10 -3 17 -13 17 -10 0 -15 -6 -13
-16z"/>
<path d="M813 649 c19 -11 23 -59 5 -59 -10 0 -10 -2 0 -9 18 -11 11 -56 -8
-56 -10 0 -15 10 -15 28 1 15 -2 27 -6 27 -10 0 -39 -29 -39 -39 0 -14 24 -31
45 -31 12 0 26 5 33 12 9 9 12 9 12 0 0 -7 12 -12 27 -12 21 0 24 3 15 12 -7
7 -12 30 -12 53 0 49 -23 85 -53 85 -20 -1 -20 -2 -4 -11z"/>
<path d="M920 649 c-14 -4 -19 -7 -12 -8 10 -1 13 -17 10 -66 -3 -59 -1 -65
17 -65 18 0 20 7 20 56 0 43 4 59 18 68 26 16 39 -9 34 -71 -3 -48 -2 -53 17
-53 19 0 21 6 21 62 0 56 2 63 20 63 18 0 20 -7 20 -63 l0 -62 30 0 c22 0 26
3 17 12 -7 7 -12 38 -12 69 0 49 -3 59 -20 64 -12 4 -31 0 -45 -9 -20 -13 -24
-13 -29 -1 -7 20 -40 19 -57 -1 -11 -13 -14 -14 -19 -2 -3 10 -13 12 -30 7z"/>
<path d="M1170 649 c-14 -4 -19 -7 -12 -8 10 -1 13 -17 10 -66 -3 -59 -1 -65
17 -65 18 0 20 6 17 52 -5 97 -4 95 -32 87z"/>
<path d="M1252 652 c-19 -3 -21 -6 -12 -17 7 -9 10 -37 8 -70 -3 -50 -1 -55
17 -55 18 0 20 6 17 52 -5 93 -5 93 -30 90z"/>
<path d="M1301 647 c-8 -11 -6 -13 12 -13 20 1 22 -3 22 -62 0 -55 2 -62 20
-62 18 0 20 5 17 62 -2 35 -9 69 -14 76 -14 16 -43 15 -57 -1z"/>
<path d="M1526 651 c-7 -11 22 -23 35 -15 5 3 7 10 4 15 -8 12 -32 12 -39 0z"/>
<path d="M1605 635 c-31 -30 -33 -77 -5 -105 23 -23 49 -28 31 -6 -7 8 -11 37
-9 68 3 47 6 53 27 56 13 2 28 -2 32 -10 12 -18 11 -85 -1 -109 -14 -25 2 -24
25 1 27 30 25 88 -4 111 -32 26 -67 24 -96 -6z"/>
<path d="M598 636 c-17 -12 -17 -14 2 -31 20 -18 20 -17 20 13 0 36 1 36 -22
18z"/>
<path d="M771 636 c-9 -10 -9 -16 -1 -21 16 -10 31 7 21 23 -6 10 -10 10 -20
-2z"/>
<path d="M1420 630 c-8 -14 -8 -26 0 -41 8 -15 8 -24 0 -34 -6 -8 -10 -22 -9
-32 1 -10 -1 -26 -5 -35 -16 -37 -3 -53 44 -55 43 -2 44 -1 11 7 -59 14 -67
53 -11 58 51 5 83 -6 75 -26 -5 -13 -3 -14 5 -6 7 7 10 22 8 35 -3 21 -9 24
-55 27 -38 2 -53 7 -53 18 0 7 9 14 21 14 19 0 19 1 5 16 -19 18 -20 28 -6 55
8 15 7 19 -4 19 -9 0 -20 -9 -26 -20z"/>
<path d="M1498 620 c2 -17 -1 -37 -8 -45 -17 -20 4 -20 24 1 19 18 21 45 4 62
-19 19 -25 14 -20 -18z"/>
</g>
</svg>
